<?xml version="1.0" encoding="utf-8"?>
<!-- Generator: Adobe Illustrator 28.0.0, SVG Export Plug-In . SVG Version: 6.00 Build 0)  -->
<svg version="1.1" id="box" xmlns="http://www.w3.org/2000/svg" xmlns:xlink="http://www.w3.org/1999/xlink" x="0px" y="0px"
	 viewBox="0 0 50 50" style="enable-background:new 0 0 50 50;" xml:space="preserve">
<style type="text/css">
	.st0{fill:#4D4D4D;}
</style>
<path class="st0" d="M49.5,24.5L49.5,24.5c-0.7,0.8-2,0.9-2.8,0.1L27,4.9c-0.6-0.5-1.3-0.8-2-0.8s-1.4,0.3-2,0.8L3.3,24.5
	c-0.8,0.8-2.1,0.8-2.9,0l0,0c-0.7-0.7-0.6-1.9,0.1-2.6L20.2,2.1l0.2-0.2c2.6-2.5,6.7-2.5,9.2,0l0.2,0.2l19.7,19.8
	C50.2,22.6,50.2,23.7,49.5,24.5z"/>
<path class="st0" d="M49.5,49.3L49.5,49.3c-0.7,0.8-2,0.9-2.8,0.1L27,29.7c-0.6-0.5-1.3-0.8-2-0.8s-1.4,0.3-2,0.8L3.3,49.3
	c-0.8,0.8-2.1,0.8-2.9,0l0,0c-0.7-0.7-0.6-1.9,0.1-2.6l19.7-19.8l0.2-0.2c2.6-2.5,6.7-2.5,9.2,0l0.2,0.2l19.7,19.8
	C50.2,47.4,50.2,48.6,49.5,49.3z"/>
</svg>
