<?xml version="1.0" encoding="utf-8"?>
<!-- Generator: Adobe Illustrator 28.0.0, SVG Export Plug-In . SVG Version: 6.00 Build 0)  -->
<svg version="1.1" id="box" xmlns="http://www.w3.org/2000/svg" xmlns:xlink="http://www.w3.org/1999/xlink" x="0px" y="0px"
	 viewBox="0 0 50 50" style="enable-background:new 0 0 50 50;" xml:space="preserve">
<style type="text/css">
	.st0{fill:#4D4D4D;}
</style>
<path class="st0" d="M49.5,28.1L29.8,47.9l-0.2,0.2c-2.5,2.5-6.6,2.5-9.2,0l-0.2-0.2L0.5,28.1c-0.7-0.7-0.8-1.9-0.1-2.6l0,0
	c0.8-0.8,2.1-0.8,2.9,0L23,45.1c0.6,0.5,1.3,0.8,2,0.8c0.7,0,1.4-0.3,2-0.8l19.7-19.7c0.8-0.8,2.1-0.7,2.8,0.1l0,0
	C50.2,26.3,50.2,27.4,49.5,28.1z"/>
<path class="st0" d="M49.5,3.3L29.8,23.1l-0.2,0.2c-2.5,2.5-6.6,2.5-9.2,0l-0.2-0.2L0.5,3.3c-0.7-0.7-0.8-1.9-0.1-2.6l0,0
	c0.8-0.8,2.1-0.8,2.9,0L23,20.3c0.6,0.5,1.3,0.8,2,0.8c0.7,0,1.4-0.3,2-0.8L46.7,0.6c0.8-0.8,2.1-0.7,2.8,0.1l0,0
	C50.2,1.4,50.2,2.6,49.5,3.3z"/>
</svg>
