<?xml version="1.0" encoding="utf-8"?>
<!-- Generator: Adobe Illustrator 28.0.0, SVG Export Plug-In . SVG Version: 6.00 Build 0)  -->
<svg version="1.1" id="box" xmlns="http://www.w3.org/2000/svg" xmlns:xlink="http://www.w3.org/1999/xlink" x="0px" y="0px"
	 viewBox="0 0 50 50" style="enable-background:new 0 0 50 50;" xml:space="preserve">
<style type="text/css">
	.st0{fill:#F44336;}
</style>
<path class="st0" d="M49,1c0.6,0.6,1,1.5,1,2.3c0,0.8-0.3,1.7-1,2.3L29.7,25L49,44.4c1.3,1.3,1.3,3.4,0,4.7s-3.4,1.3-4.7,0L25,29.7
	L5.6,49c-1.3,1.3-3.4,1.3-4.7,0s-1.3-3.4,0-4.7L20.3,25L1,5.6C-0.3,4.3-0.3,2.3,1,1c0.6-0.6,1.5-1,2.3-1C4.1,0,5,0.3,5.6,1L25,20.3
	L44.4,1C45.7-0.3,47.7-0.3,49,1z"/>
</svg>
