<?xml version="1.0" encoding="utf-8"?>
<!-- Generator: Adobe Illustrator 28.0.0, SVG Export Plug-In . SVG Version: 6.00 Build 0)  -->
<svg version="1.1" id="box" xmlns="http://www.w3.org/2000/svg" xmlns:xlink="http://www.w3.org/1999/xlink" x="0px" y="0px"
	 viewBox="0 0 50 50" style="enable-background:new 0 0 50 50;" xml:space="preserve">
<style type="text/css">
	.st0{fill:#4D4D4D;}
</style>
<path class="st0" d="M38.6,26.7v17.8c0,1.3-1.1,2.4-2.4,2.4H5.5c-1.3,0-2.4-1.1-2.4-2.4V13.8c0-1.3,1.1-2.4,2.4-2.4h18
	c0.9,0,1.6-0.7,1.6-1.6V9.7c0-0.9-0.7-1.6-1.6-1.6H5.9c-3.3,0-6,2.7-6,6V44c0,3.3,2.7,6,6,6h29.9c3.3,0,6-2.7,6-6V26.7
	c0-0.9-0.7-1.6-1.6-1.6h0C39.3,25.1,38.6,25.8,38.6,26.7z"/>
<path class="st0" d="M50.1,5.7c0-1.5-0.6-2.9-1.7-4.1c-2.2-2.2-5.8-2.3-8,0L18.7,23.3c-0.2,0.2-0.3,0.4-0.4,0.7l-1.6,7.5
	c-0.2,1.1,0.8,2.1,1.9,1.9l7.5-1.6c0.3-0.1,0.5-0.2,0.7-0.4L48.5,9.8C49.6,8.7,50.1,7.2,50.1,5.7z M46.3,3.9L46.3,3.9
	c1,1,1,2.7,0,3.8l-1.8,1.8l-3.8-3.8l1.8-1.8C43.5,2.8,45.2,2.8,46.3,3.9z M20.3,29.8l0.8-4.6L38.5,7.8l3.8,3.8L24.8,29L20.3,29.8z"
	/>
</svg>
