<?xml version="1.0" encoding="utf-8"?>
<!-- Generator: Adobe Illustrator 28.0.0, SVG Export Plug-In . SVG Version: 6.00 Build 0)  -->
<svg version="1.1" id="box" xmlns="http://www.w3.org/2000/svg" xmlns:xlink="http://www.w3.org/1999/xlink" x="0px" y="0px"
	 viewBox="0 0 50 50" style="enable-background:new 0 0 50 50;" xml:space="preserve">
<style type="text/css">
	.st0{fill:#FFFFFF;}
	.st1{fill:#E05C26;}
</style>
<circle class="st0" cx="25" cy="25" r="25"/>
<path class="st1" d="M25,0C11.2,0,0,11.2,0,25s11.2,25,25,25c4.6,0,8.9-1.3,12.6-3.4c-5.2-5.4-8.2-8.4-12.4-17.4l-5-0.2v9.4h-5.6
	V15.8l-3.4-0.4l-0.5-5.5l4.7,1.3h12.1c4.7,0,8.6,3.8,8.6,8.6v0.1c0,3.7-2.2,6.9-5.3,8.5c4.6,8.9,6,9.7,11.2,15.2
	c5-4.6,8.1-11.1,8.1-18.4C50,11.2,38.8,0,25,0z"/>
<path class="st1" d="M30.2,20.2c0,1.2-0.5,2.3-1.3,3.1c-0.8,0.8-1.9,1.3-3.1,1.3l-5.7-0.2v-8.6h5.5C28.2,15.7,30.2,17.7,30.2,20.2z"
	/>
</svg>
