<?xml version="1.0" encoding="utf-8"?>
<!-- Generator: Adobe Illustrator 28.0.0, SVG Export Plug-In . SVG Version: 6.00 Build 0)  -->
<svg version="1.1" id="box" xmlns="http://www.w3.org/2000/svg" xmlns:xlink="http://www.w3.org/1999/xlink" x="0px" y="0px"
	 viewBox="0 0 50 11.7" style="enable-background:new 0 0 50 11.7;" xml:space="preserve">
<style type="text/css">
	.st0{fill:#FFFFFF;}
	.st1{fill:#E05C26;}
</style>
<circle class="st0" cx="5.8" cy="5.8" r="5.8"/>
<path class="st1" d="M5.8,0C2.6,0,0,2.6,0,5.8s2.6,5.8,5.8,5.8c1.1,0,2.1-0.3,3-0.8c-1.2-1.3-1.9-2-2.9-4.1l-1.2,0V9H3.4V3.7
	L2.6,3.6L2.5,2.3l1.1,0.3h2.8c1.1,0,2,0.9,2,2v0c0,0.9-0.5,1.6-1.2,2c1.1,2.1,1.4,2.3,2.6,3.6c1.2-1.1,1.9-2.6,1.9-4.3
	C11.7,2.6,9.1,0,5.8,0z"/>
<path class="st1" d="M7.1,4.7C7.1,5,7,5.3,6.8,5.4C6.6,5.6,6.3,5.7,6.1,5.7l-1.3,0v-2H6C6.6,3.7,7.1,4.2,7.1,4.7z"/>
<path class="st1" d="M17.3,6.6c0.2-0.1,0.4-0.2,0.5-0.4c0.4-0.4,0.6-0.8,0.6-1.4c0-1-0.8-1.8-1.8-1.8h-2.5l-1-0.3l0.1,1.2L14,4v4.7
	h1.1V6.8l1,0c0.4,0.9,0.6,1.2,1.2,2l1.3-0.1C18,7.9,17.7,7.4,17.3,6.6z M15.1,5.8V4h1.2c0.5,0,0.9,0.4,0.9,0.9
	c0,0.3-0.1,0.5-0.3,0.7c-0.2,0.2-0.4,0.3-0.7,0.3L15.1,5.8z"/>
<path class="st1" d="M23.3,6.7C23.3,6.7,23.3,6.7,23.3,6.7c0-1.2-0.9-2.1-2-2.1c0,0,0,0,0,0c-1.1,0-2,0.9-2,2.1c0,0.1,0,0.2,0,0.2
	c0,0,0,0,0,0c0,0,0,0.1,0,0.1c0,0,0,0,0,0c0.2,1,1,1.7,2,1.7c0.8,0,1.4-0.1,1.7-0.4l0.1-1c-1,0.6-2.5,0.7-2.8-0.4h2.9L23.3,6.7z
	 M20.4,6.2c0.1-0.4,0.5-0.8,0.9-0.8s0.8,0.3,0.9,0.8H20.4z"/>
<polygon class="st1" points="25.6,2.9 24.5,2.9 24.5,8.8 25.6,8.8 "/>
<path class="st1" d="M30.8,6.7C30.8,6.7,30.8,6.7,30.8,6.7c0-1.2-0.9-2.1-2-2.1c0,0,0,0,0,0c-1.1,0-2,0.9-2,2.1c0,0.1,0,0.2,0,0.2
	c0,0,0,0,0,0c0,0,0,0.1,0,0.1c0,0,0,0,0,0c0.2,1,1,1.7,2,1.7c0.8,0,1.4-0.1,1.7-0.4l0.1-1c-1,0.6-2.5,0.7-2.8-0.4h2.9L30.8,6.7z
	 M27.9,6.2c0.1-0.4,0.5-0.8,0.9-0.8c0.4,0,0.8,0.3,0.9,0.8H27.9z"/>
<path class="st1" d="M35.8,4.6L34,8.8h-0.9l-1.8-4.2h1.3c0.1,0.3,0.4,0.9,0.6,1.6c0.1,0.1,0.1,0.4,0.2,0.7c0,0.1,0.1,0.3,0.2,0.5
	c0,0,0,0,0,0c0,0,0,0,0,0c0.1-0.2,0.1-0.5,0.2-0.5C33.9,6.6,34,6.4,34,6.2c0.2-0.7,0.5-1.3,0.6-1.6L35.8,4.6L35.8,4.6z"/>
<path class="st1" d="M45.5,6.3v2.4h-1.1V6.4c0-0.2-0.1-0.5-0.3-0.6c-0.2-0.2-0.4-0.3-0.6-0.3c-0.5,0-0.9,0.4-0.9,0.9v2.3h-1.1
	c0-1,0-2,0-3c0-0.3,0-0.7,0-1c0.4,0,0.7-0.1,1.1-0.1c0,0.2,0,0.4,0,0.6C42.7,5,42.8,4.8,43,4.7c0.3-0.2,0.7-0.2,0.8-0.2
	c0.2,0,0.7,0,1.2,0.4C45.5,5.4,45.5,6.2,45.5,6.3z"/>
<path class="st1" d="M50,7.6c0,0-0.1,0.1-0.1,0.1c-0.1,0-0.2,0.1-0.5,0.1h-0.2c-0.4,0-0.7-0.3-0.7-0.6v-1V5.8V5.5h1.4L50,4.6h-1.5
	V3.5l-1.1,0.2v0.9l-0.8,0.2v0.8h0.8v1.9c0,0.5,0.3,0.9,0.4,0.9c0.4,0.4,1,0.4,1.3,0.4c0.1,0,0.5,0,0.9-0.2L50,7.6z"/>
<path class="st1" d="M40.1,7.4c0-0.1,0-0.8,0-1.1C40,6.1,40,6,40,6c0-0.1,0-0.2,0-0.3c0,0,0-0.1,0-0.1v0c0-0.2-0.1-0.4-0.3-0.5
	c-0.1-0.1-0.2-0.2-0.3-0.2c-0.2-0.1-0.6-0.2-1-0.3c-0.1,0-0.2,0-0.3,0c-0.6,0-1.1,0.1-1.4,0.3l-0.1,1c0,0,0,0,0,0
	c0.2-0.1,0.3-0.1,0.5-0.2c0.4-0.2,0.8-0.2,0.9-0.2c0.3,0,0.5,0,0.7,0.1c0.1,0.1,0.1,0.1,0.1,0.2c0,0,0.1,0.1,0,0.3
	C38.8,6.3,38,6.4,38,6.4c-0.2,0-0.4,0.1-0.6,0.1c-0.1,0-0.2,0.1-0.2,0.1c-0.1,0.1-0.2,0.1-0.4,0.2c0,0-0.1,0.1-0.2,0.3
	c-0.2,0.3-0.2,0.7-0.1,1c0.1,0.3,0.4,0.5,0.5,0.6c0.3,0.2,0.6,0.2,0.8,0.2c0.2,0,0.4,0,0.7-0.2c0.1-0.1,0.4-0.2,0.5-0.4
	c0,0.2,0,0.3,0.1,0.5h1C40.1,8.1,40.1,7.7,40.1,7.4z M38.8,7.6C38.6,7.8,38.3,8,38,8c-0.1,0-0.2,0-0.3-0.1c-0.1-0.1-0.1-0.3-0.1-0.3
	c0,0,0-0.1,0.1-0.2c0.1-0.1,0.2-0.2,0.4-0.2c0.2,0,0.3,0,0.4,0c0.1,0,0.3-0.1,0.5-0.2C38.9,7,39,7.3,38.8,7.6z"/>
</svg>
